<?xml version="1.0" encoding="UTF-8" standalone="no"?>
<!-- Created with Inkscape (http://www.inkscape.org/) -->

<svg
   width="100mm"
   height="100mm"
   viewBox="0 0 100 100"
   version="1.1"
   id="svg5"
   xml:space="preserve"
   inkscape:version="1.2.2 (b0a8486541, 2022-12-01)"
   sodipodi:docname="logo.svg"
   xmlns:inkscape="http://www.inkscape.org/namespaces/inkscape"
   xmlns:sodipodi="http://sodipodi.sourceforge.net/DTD/sodipodi-0.dtd"
   xmlns="http://www.w3.org/2000/svg"
   xmlns:svg="http://www.w3.org/2000/svg"><sodipodi:namedview
     id="namedview7"
     pagecolor="#ffffff"
     bordercolor="#000000"
     borderopacity="0.25"
     inkscape:showpageshadow="2"
     inkscape:pageopacity="0.0"
     inkscape:pagecheckerboard="0"
     inkscape:deskcolor="#d1d1d1"
     inkscape:document-units="mm"
     showgrid="false"
     inkscape:zoom="1"
     inkscape:cx="307.5"
     inkscape:cy="186.5"
     inkscape:window-width="1702"
     inkscape:window-height="1396"
     inkscape:window-x="1709"
     inkscape:window-y="38"
     inkscape:window-maximized="1"
     inkscape:current-layer="layer1" /><defs
     id="defs2" /><g
     inkscape:label="Layer 1"
     inkscape:groupmode="layer"
     id="layer1"
     transform="translate(0,-50)"><path
       id="rect3329"
       style="fill:#000000;stroke:#000000;stroke-width:0.595451"
       d="M 0.29765625 50.297656 L 0.29765625 149.70244 L 99.702441 149.70244 L 99.702441 129.7264 A 56.786953 56.786953 0 0 1 77.500179 134.28684 A 56.786953 56.786953 0 0 1 20.712948 77.50013 A 56.786953 56.786953 0 0 1 27.69185 50.297656 L 0.29765625 50.297656 z " /><path
       id="path6503"
       style="fill:#d81713;fill-opacity:1;stroke:#d81713;stroke-width:0.943204;stroke-opacity:1"
       d="M 52.089327 50.59738 A 37.028397 37.028397 0 0 0 40.471431 77.50013 A 37.028397 37.028397 0 0 0 77.500179 114.52836 A 37.028397 37.028397 0 0 0 99.434757 107.29986 L 99.434757 50.59738 L 52.089327 50.59738 z " /><g
       style="fill:#000000"
       id="g14312"
       transform="matrix(-0.0250912,0.03328703,-0.0335122,-0.02797795,48.661364,87.953327)"
       inkscape:transform-center-x="4.3585437"
       inkscape:transform-center-y="-8.9774083"><g
         id="g14303">
	<path
   d="m 413.695,0 c 0,0 -45.366,44.014 -94.43,61.759 -363.333,131.419 -210.1,387.518 -205.101,388.362 0,0 20.374,-35.48 47.896,-55.717 C 336.704,266.015 372.2,118.233 372.2,118.233 c 0,0 -39.19,177.829 -194.562,288.479 -34.316,24.426 -57.552,84.568 -67.388,144.679 0,0 24.325,-9.828 34.785,-12.49 4.079,-26.618 12.607,-52.106 27.025,-74.875 C 389.211,489.88 460.332,314.903 469.623,253.89 491.552,109.79 413.695,0 413.695,0 Z"
   id="path14301" />
</g></g></g></svg>
