<?xml version="1.0" encoding="UTF-8" standalone="no"?>
<!-- Created with Inkscape (http://www.inkscape.org/) -->

<svg
   width="400mm"
   height="120mm"
   viewBox="0 0 400 120"
   version="1.1"
   id="svg5"
   xml:space="preserve"
   inkscape:version="1.2.2 (b0a8486541, 2022-12-01)"
   sodipodi:docname="logo_text.svg"
   xmlns:inkscape="http://www.inkscape.org/namespaces/inkscape"
   xmlns:sodipodi="http://sodipodi.sourceforge.net/DTD/sodipodi-0.dtd"
   xmlns="http://www.w3.org/2000/svg"
   xmlns:svg="http://www.w3.org/2000/svg"><sodipodi:namedview
     id="namedview7"
     pagecolor="#ffffff"
     bordercolor="#000000"
     borderopacity="0.25"
     inkscape:showpageshadow="2"
     inkscape:pageopacity="0.0"
     inkscape:pagecheckerboard="0"
     inkscape:deskcolor="#d1d1d1"
     inkscape:document-units="mm"
     showgrid="false"
     inkscape:zoom="0.70710678"
     inkscape:cx="764.38243"
     inkscape:cy="280.72139"
     inkscape:window-width="1702"
     inkscape:window-height="1396"
     inkscape:window-x="1709"
     inkscape:window-y="38"
     inkscape:window-maximized="1"
     inkscape:current-layer="layer2" /><defs
     id="defs2" /><g
     inkscape:groupmode="layer"
     id="layer2"
     inkscape:label="Layer 2"><rect
       style="fill:#000000;fill-opacity:1;stroke:#000000;stroke-width:1.212;stroke-opacity:1;stroke-dasharray:none"
       id="rect8474"
       width="398.78763"
       height="118.78763"
       x="0.60618562"
       y="0.60618562" /><text
       xml:space="preserve"
       style="font-style:normal;font-variant:normal;font-weight:normal;font-stretch:normal;font-size:114.98px;font-family:Alexander;-inkscape-font-specification:'Alexander, Normal';font-variant-ligatures:normal;font-variant-caps:normal;font-variant-numeric:normal;font-variant-east-asian:normal;fill:#d8d8d8;fill-opacity:1;stroke:#f2d4d4;stroke-width:0.0468323;stroke-dasharray:none;stroke-opacity:1"
       x="147.10532"
       y="88.433289"
       id="text21059"
       transform="scale(0.80824465,1.2372491)"><tspan
         sodipodi:role="line"
         id="tspan21057"
         style="font-style:normal;font-variant:normal;font-weight:normal;font-stretch:normal;font-size:114.98px;font-family:Alexander;-inkscape-font-specification:'Alexander, Normal';font-variant-ligatures:normal;font-variant-caps:normal;font-variant-numeric:normal;font-variant-east-asian:normal;fill:#d8d8d8;fill-opacity:1;stroke-width:0.0468321"
         x="147.10532"
         y="88.433289">Rooibos</tspan></text></g><g
     inkscape:label="Layer 1"
     inkscape:groupmode="layer"
     id="layer1"
     transform="translate(-5.9604645e-7,-50.000001)"><path
       id="rect3329"
       style="fill:#edc5c5;fill-opacity:1;stroke:#f2d4d4;stroke-width:0.595;stroke-dasharray:none;stroke-opacity:1"
       d="M 10.297725,60.297725 V 159.70251 H 109.70251 V 139.72647 A 56.786953,56.786953 0 0 1 87.500248,144.28691 56.786953,56.786953 0 0 1 30.713017,87.500199 56.786953,56.786953 0 0 1 37.691919,60.297725 Z" /><path
       id="path6503"
       style="fill:#d81713;fill-opacity:1;stroke:#d81713;stroke-width:0.943204;stroke-opacity:1"
       d="m 62.089498,60.597602 a 37.028397,37.028397 0 0 0 -11.617896,26.90275 37.028397,37.028397 0 0 0 37.028748,37.028228 37.028397,37.028397 0 0 0 21.93458,-7.2285 V 60.597602 Z" /><g
       style="fill:#e6e4e4;fill-opacity:1;stroke-width:1.00862247;stroke-dasharray:none"
       id="g14312"
       transform="matrix(-0.0250912,0.03328703,-0.0335122,-0.02797795,57.581362,90.444309)"
       inkscape:transform-center-x="4.3585437"
       inkscape:transform-center-y="-8.9774083"><g
         id="g14303"
         style="fill:#e6e4e4;fill-opacity:1;stroke-width:1.00862247;stroke-dasharray:none">
	<path
   d="m 413.695,0 c 0,0 -45.366,44.014 -94.43,61.759 -363.333,131.419 -210.1,387.518 -205.101,388.362 0,0 20.374,-35.48 47.896,-55.717 C 336.704,266.015 372.2,118.233 372.2,118.233 c 0,0 -39.19,177.829 -194.562,288.479 -34.316,24.426 -57.552,84.568 -67.388,144.679 0,0 24.325,-9.828 34.785,-12.49 4.079,-26.618 12.607,-52.106 27.025,-74.875 C 389.211,489.88 460.332,314.903 469.623,253.89 491.552,109.79 413.695,0 413.695,0 Z"
   id="path14301"
   style="fill:#e6e4e4;fill-opacity:1;stroke-width:1.00862247;stroke-dasharray:none" />
</g></g></g></svg>
